<mxfile host="app.diagrams.net" modified="2023-10-11T14:52:20.239Z" agent="Mozilla/5.0 (Windows NT 10.0; Win64; x64) AppleWebKit/537.36 (KHTML, like Gecko) Chrome/115.0.0.0 Safari/537.36 Edg/115.0.1901.188" etag="EAMHcq8yAKGyHHsDbFfD" version="22.0.4" type="device">
  <diagram name="Page-1" id="3Cr9PtrnOgPXIIEMX3BX">
    <mxGraphModel dx="880" dy="451" grid="1" gridSize="10" guides="1" tooltips="1" connect="1" arrows="1" fold="1" page="1" pageScale="1" pageWidth="850" pageHeight="1100" math="0" shadow="0">
      <root>
        <mxCell id="0" />
        <mxCell id="1" parent="0" />
        <mxCell id="e358kH2d-FR4IyPn5caj-1" value="ADV Mobile Store System" style="ellipse;whiteSpace=wrap;html=1;aspect=fixed;" vertex="1" parent="1">
          <mxGeometry x="380" y="200" width="110" height="110" as="geometry" />
        </mxCell>
        <mxCell id="e358kH2d-FR4IyPn5caj-3" value="Admin Management" style="rounded=0;whiteSpace=wrap;html=1;" vertex="1" parent="1">
          <mxGeometry x="375" y="50" width="120" height="60" as="geometry" />
        </mxCell>
        <mxCell id="e358kH2d-FR4IyPn5caj-4" value="Mobile Model&lt;br&gt;Management" style="rounded=0;whiteSpace=wrap;html=1;" vertex="1" parent="1">
          <mxGeometry x="100" y="225" width="120" height="60" as="geometry" />
        </mxCell>
        <mxCell id="e358kH2d-FR4IyPn5caj-5" value="User Management" style="rounded=0;whiteSpace=wrap;html=1;" vertex="1" parent="1">
          <mxGeometry x="640" y="220" width="120" height="60" as="geometry" />
        </mxCell>
        <mxCell id="e358kH2d-FR4IyPn5caj-6" value="Login Management" style="rounded=0;whiteSpace=wrap;html=1;" vertex="1" parent="1">
          <mxGeometry x="100" y="90" width="120" height="60" as="geometry" />
        </mxCell>
        <mxCell id="e358kH2d-FR4IyPn5caj-7" value="Roles Management" style="rounded=0;whiteSpace=wrap;html=1;" vertex="1" parent="1">
          <mxGeometry x="630" y="100" width="120" height="60" as="geometry" />
        </mxCell>
        <mxCell id="e358kH2d-FR4IyPn5caj-8" value="Payment Management" style="rounded=0;whiteSpace=wrap;html=1;" vertex="1" parent="1">
          <mxGeometry x="375" y="430" width="120" height="60" as="geometry" />
        </mxCell>
        <mxCell id="e358kH2d-FR4IyPn5caj-9" value="" style="endArrow=classic;startArrow=classic;html=1;rounded=0;entryX=0.5;entryY=1;entryDx=0;entryDy=0;exitX=0.5;exitY=0;exitDx=0;exitDy=0;" edge="1" parent="1" source="e358kH2d-FR4IyPn5caj-1" target="e358kH2d-FR4IyPn5caj-3">
          <mxGeometry width="50" height="50" relative="1" as="geometry">
            <mxPoint x="400" y="210" as="sourcePoint" />
            <mxPoint x="450" y="160" as="targetPoint" />
          </mxGeometry>
        </mxCell>
        <mxCell id="e358kH2d-FR4IyPn5caj-10" value="" style="endArrow=classic;startArrow=classic;html=1;rounded=0;exitX=0.936;exitY=0.255;exitDx=0;exitDy=0;exitPerimeter=0;" edge="1" parent="1" source="e358kH2d-FR4IyPn5caj-1" target="e358kH2d-FR4IyPn5caj-7">
          <mxGeometry width="50" height="50" relative="1" as="geometry">
            <mxPoint x="400" y="210" as="sourcePoint" />
            <mxPoint x="450" y="160" as="targetPoint" />
          </mxGeometry>
        </mxCell>
        <mxCell id="e358kH2d-FR4IyPn5caj-11" value="" style="endArrow=classic;startArrow=classic;html=1;rounded=0;exitX=1;exitY=0.5;exitDx=0;exitDy=0;" edge="1" parent="1" source="e358kH2d-FR4IyPn5caj-1" target="e358kH2d-FR4IyPn5caj-5">
          <mxGeometry width="50" height="50" relative="1" as="geometry">
            <mxPoint x="400" y="210" as="sourcePoint" />
            <mxPoint x="450" y="160" as="targetPoint" />
          </mxGeometry>
        </mxCell>
        <mxCell id="e358kH2d-FR4IyPn5caj-12" value="" style="endArrow=classic;startArrow=classic;html=1;rounded=0;" edge="1" parent="1" source="e358kH2d-FR4IyPn5caj-1" target="e358kH2d-FR4IyPn5caj-6">
          <mxGeometry width="50" height="50" relative="1" as="geometry">
            <mxPoint x="400" y="210" as="sourcePoint" />
            <mxPoint x="450" y="160" as="targetPoint" />
          </mxGeometry>
        </mxCell>
        <mxCell id="e358kH2d-FR4IyPn5caj-13" value="" style="endArrow=classic;startArrow=classic;html=1;rounded=0;entryX=0;entryY=0.5;entryDx=0;entryDy=0;exitX=1;exitY=0.5;exitDx=0;exitDy=0;" edge="1" parent="1" source="e358kH2d-FR4IyPn5caj-4" target="e358kH2d-FR4IyPn5caj-1">
          <mxGeometry width="50" height="50" relative="1" as="geometry">
            <mxPoint x="400" y="210" as="sourcePoint" />
            <mxPoint x="450" y="160" as="targetPoint" />
          </mxGeometry>
        </mxCell>
        <mxCell id="e358kH2d-FR4IyPn5caj-14" value="" style="endArrow=classic;startArrow=classic;html=1;rounded=0;entryX=0.5;entryY=0;entryDx=0;entryDy=0;exitX=0.5;exitY=1;exitDx=0;exitDy=0;" edge="1" parent="1" source="e358kH2d-FR4IyPn5caj-1" target="e358kH2d-FR4IyPn5caj-8">
          <mxGeometry width="50" height="50" relative="1" as="geometry">
            <mxPoint x="400" y="210" as="sourcePoint" />
            <mxPoint x="450" y="160" as="targetPoint" />
          </mxGeometry>
        </mxCell>
      </root>
    </mxGraphModel>
  </diagram>
</mxfile>
